<?xml version="1.0" standalone="no"?><!DOCTYPE svg PUBLIC "-//W3C//DTD SVG 1.1//EN" "http://www.w3.org/Graphics/SVG/1.1/DTD/svg11.dtd"><svg class="icon" height="512" viewBox="0 0 1024 1024" version="1.1" xmlns="http://www.w3.org/2000/svg"><path d="M302.933333 153.6 243.2 93.866667C140.8 170.666667 72.533333 290.133333 64 426.666667l85.333333 0C157.866667 311.466667 213.333333 213.333333 302.933333 153.6zM874.666667 426.666667l85.333333 0c-8.533333-136.533333-72.533333-256-174.933333-332.8L725.333333 153.6C810.666667 213.333333 866.133333 311.466667 874.666667 426.666667zM789.333333 448c0-132.266667-89.6-238.933333-213.333333-268.8L576 149.333333C576 115.2 546.133333 85.333333 512 85.333333s-64 29.866667-64 64l0 29.866667c-123.733333 29.866667-213.333333 136.533333-213.333333 268.8L234.666667 682.666667l-85.333333 85.333333 0 42.666667 725.333333 0 0-42.666667-85.333333-85.333333L789.333333 448zM512 938.666667c4.266667 0 12.8 0 17.066667 0 29.866667-4.266667 51.2-25.6 59.733333-51.2 4.266667-8.533333 8.533333-21.333333 8.533333-34.133333l-170.666667 0C426.666667 900.266667 465.066667 938.666667 512 938.666667z" /></svg>